<svg width="57" height="12" viewBox="0 0 57 12" fill="none" xmlns="http://www.w3.org/2000/svg">
<path d="M4.92781 2.88002L3.34381 7.10402H6.54381L4.92781 2.88002ZM5.74381 0.41602L9.95181 11.04L8.14381 11.296L7.10381 8.56002H2.81581L1.79181 11.296H-0.000191405L4.15981 0.41602H5.74381ZM14.6684 4.80002C13.9004 4.80002 13.3671 5.07202 13.0684 5.61602C12.7698 6.14935 12.6204 6.73602 12.6204 7.37602C12.6204 8.06935 12.7591 8.67202 13.0364 9.18402C13.3244 9.69602 13.8684 9.95202 14.6684 9.95202C14.9351 9.95202 15.2124 9.89335 15.5004 9.77602C15.7991 9.64802 16.0764 9.48802 16.3324 9.29602V5.45602C16.0764 5.25335 15.7991 5.09335 15.5004 4.97602C15.2124 4.85869 14.9351 4.80002 14.6684 4.80002ZM18.1564 2.00272e-05V11.296H17.1804L16.6844 10.56C16.3431 10.8587 15.9431 11.088 15.4844 11.248C15.0258 11.408 14.6044 11.488 14.2204 11.488C13.0898 11.488 12.2258 11.0987 11.6284 10.32C11.0418 9.53069 10.7484 8.54935 10.7484 7.37602C10.7484 6.20269 11.0578 5.22669 11.6764 4.44802C12.3058 3.65869 13.1804 3.26402 14.3004 3.26402C14.5991 3.26402 14.9351 3.32269 15.3084 3.44002C15.6818 3.54669 16.0231 3.70135 16.3324 3.90402V0.17602L18.1564 2.00272e-05ZM23.9341 4.80002C23.1661 4.80002 22.6327 5.07202 22.3341 5.61602C22.0354 6.14935 21.8861 6.73602 21.8861 7.37602C21.8861 8.06935 22.0247 8.67202 22.3021 9.18402C22.5901 9.69602 23.1341 9.95202 23.9341 9.95202C24.2007 9.95202 24.4781 9.89335 24.7661 9.77602C25.0647 9.64802 25.3421 9.48802 25.5981 9.29602V5.45602C25.3421 5.25335 25.0647 5.09335 24.7661 4.97602C24.4781 4.85869 24.2007 4.80002 23.9341 4.80002ZM27.4221 2.00272e-05V11.296H26.4461L25.9501 10.56C25.6087 10.8587 25.2087 11.088 24.7501 11.248C24.2914 11.408 23.8701 11.488 23.4861 11.488C22.3554 11.488 21.4914 11.0987 20.8941 10.32C20.3074 9.53069 20.0141 8.54935 20.0141 7.37602C20.0141 6.20269 20.3234 5.22669 20.9421 4.44802C21.5714 3.65869 22.4461 3.26402 23.5661 3.26402C23.8647 3.26402 24.2007 3.32269 24.5741 3.44002C24.9474 3.54669 25.2887 3.70135 25.5981 3.90402V0.17602L27.4221 2.00272e-05ZM36.5597 7.90402H31.1837C31.2584 8.51202 31.4877 9.00802 31.8717 9.39202C32.2557 9.77602 32.7997 9.96802 33.5037 9.96802C33.909 9.96802 34.261 9.92002 34.5597 9.82402C34.8584 9.72802 35.1784 9.60002 35.5197 9.44002C35.6157 9.65335 35.7064 9.87202 35.7917 10.096C35.8877 10.32 35.9784 10.5387 36.0637 10.752C35.7117 11.008 35.2744 11.1947 34.7517 11.312C34.229 11.4294 33.8024 11.488 33.4717 11.488C32.149 11.488 31.1197 11.12 30.3837 10.384C29.6477 9.63735 29.2797 8.65069 29.2797 7.42402C29.2797 6.19735 29.621 5.21069 30.3037 4.46402C30.9864 3.70669 31.9144 3.32802 33.0877 3.32802C34.421 3.32802 35.333 3.79202 35.8237 4.72002C36.3144 5.63735 36.5597 6.69869 36.5597 7.90402ZM34.8317 6.68802C34.725 6.11202 34.5224 5.66935 34.2237 5.36002C33.9357 5.04002 33.541 4.88002 33.0397 4.88002C32.5277 4.88002 32.1117 5.04002 31.7917 5.36002C31.4824 5.68002 31.2904 6.12269 31.2157 6.68802H34.8317ZM41.8247 4.80002C41.0567 4.80002 40.5234 5.07202 40.2247 5.61602C39.926 6.14935 39.7767 6.73602 39.7767 7.37602C39.7767 8.06935 39.9154 8.67202 40.1927 9.18402C40.4807 9.69602 41.0247 9.95202 41.8247 9.95202C42.0914 9.95202 42.3687 9.89335 42.6567 9.77602C42.9554 9.64802 43.2327 9.48802 43.4887 9.29602V5.45602C43.2327 5.25335 42.9554 5.09335 42.6567 4.97602C42.3687 4.85869 42.0914 4.80002 41.8247 4.80002ZM45.3127 2.00272e-05V11.296H44.3367L43.8407 10.56C43.4994 10.8587 43.0994 11.088 42.6407 11.248C42.182 11.408 41.7607 11.488 41.3767 11.488C40.246 11.488 39.382 11.0987 38.7847 10.32C38.198 9.53069 37.9047 8.54935 37.9047 7.37602C37.9047 6.20269 38.214 5.22669 38.8327 4.44802C39.462 3.65869 40.3367 3.26402 41.4567 3.26402C41.7554 3.26402 42.0914 3.32269 42.4647 3.44002C42.838 3.54669 43.1794 3.70135 43.4887 3.90402V0.17602L45.3127 2.00272e-05ZM56.2636 11.296H51.4316L51.2876 10.016H53.0156V4.33602L52.0876 4.91202C51.9489 4.70935 51.8049 4.50669 51.6556 4.30402C51.5169 4.09069 51.3782 3.88269 51.2396 3.68002L53.6236 2.24002H54.8236V10.016H56.1036C56.1356 10.2294 56.1622 10.448 56.1836 10.672C56.2156 10.8854 56.2422 11.0934 56.2636 11.296Z" fill="#E76C1F"/>
</svg>
