<svg width="98" height="12" viewBox="0 0 98 12" fill="none" xmlns="http://www.w3.org/2000/svg">
<path d="M4.92781 2.8799L3.34381 7.1039H6.54381L4.92781 2.8799ZM5.74381 0.415898L9.95181 11.0399L8.14381 11.2959L7.10381 8.5599H2.81581L1.79181 11.2959H-0.000191405L4.15981 0.415898H5.74381ZM14.6684 4.7999C13.9004 4.7999 13.3671 5.0719 13.0684 5.6159C12.7698 6.14923 12.6204 6.7359 12.6204 7.3759C12.6204 8.06923 12.7591 8.6719 13.0364 9.1839C13.3244 9.6959 13.8684 9.9519 14.6684 9.9519C14.9351 9.9519 15.2124 9.89323 15.5004 9.7759C15.7991 9.6479 16.0764 9.4879 16.3324 9.2959V5.4559C16.0764 5.25323 15.7991 5.09323 15.5004 4.9759C15.2124 4.85856 14.9351 4.7999 14.6684 4.7999ZM18.1564 -0.000102043V11.2959H17.1804L16.6844 10.5599C16.3431 10.8586 15.9431 11.0879 15.4844 11.2479C15.0258 11.4079 14.6044 11.4879 14.2204 11.4879C13.0898 11.4879 12.2258 11.0986 11.6284 10.3199C11.0418 9.53057 10.7484 8.54923 10.7484 7.3759C10.7484 6.20256 11.0578 5.22656 11.6764 4.4479C12.3058 3.65856 13.1804 3.2639 14.3004 3.2639C14.5991 3.2639 14.9351 3.32256 15.3084 3.4399C15.6818 3.54656 16.0231 3.70123 16.3324 3.9039V0.175898L18.1564 -0.000102043ZM23.9341 4.7999C23.1661 4.7999 22.6327 5.0719 22.3341 5.6159C22.0354 6.14923 21.8861 6.7359 21.8861 7.3759C21.8861 8.06923 22.0247 8.6719 22.3021 9.1839C22.5901 9.6959 23.1341 9.9519 23.9341 9.9519C24.2007 9.9519 24.4781 9.89323 24.7661 9.7759C25.0647 9.6479 25.3421 9.4879 25.5981 9.2959V5.4559C25.3421 5.25323 25.0647 5.09323 24.7661 4.9759C24.4781 4.85856 24.2007 4.7999 23.9341 4.7999ZM27.4221 -0.000102043V11.2959H26.4461L25.9501 10.5599C25.6087 10.8586 25.2087 11.0879 24.7501 11.2479C24.2914 11.4079 23.8701 11.4879 23.4861 11.4879C22.3554 11.4879 21.4914 11.0986 20.8941 10.3199C20.3074 9.53057 20.0141 8.54923 20.0141 7.3759C20.0141 6.20256 20.3234 5.22656 20.9421 4.4479C21.5714 3.65856 22.4461 3.2639 23.5661 3.2639C23.8647 3.2639 24.2007 3.32256 24.5741 3.4399C24.9474 3.54656 25.2887 3.70123 25.5981 3.9039V0.175898L27.4221 -0.000102043ZM37.8129 11.1839C37.6529 11.2906 37.4289 11.3812 37.1409 11.4559C36.8636 11.5412 36.6076 11.5839 36.3729 11.5839C35.5089 11.5839 34.8263 11.3599 34.3249 10.9119C33.8236 10.4639 33.5729 9.81857 33.5729 8.9759V4.9759H32.5169V3.5839H33.5729V1.7119L35.3809 1.3439V3.5839H36.7889L37.3489 4.9759H35.3809V8.6719C35.3809 9.06657 35.4716 9.39723 35.6529 9.6639C35.8343 9.9199 36.1169 10.0479 36.5009 10.0479C36.6396 10.0479 36.7729 10.0319 36.9009 9.9999C37.0396 9.95723 37.1729 9.90923 37.3009 9.8559L37.8129 11.1839ZM42.5241 11.4879C41.3187 11.4772 40.3907 11.1039 39.7401 10.3679C39.0894 9.62123 38.7641 8.62923 38.7641 7.3919C38.7747 6.1759 39.1214 5.1999 39.8041 4.4639C40.4867 3.71723 41.4361 3.33856 42.6521 3.3279C43.9001 3.3279 44.8601 3.7119 45.5321 4.4799C46.2041 5.2479 46.5401 6.24523 46.5401 7.4719C46.5294 8.6879 46.1614 9.6639 45.4361 10.3999C44.7107 11.1252 43.7401 11.4879 42.5241 11.4879ZM44.6841 7.4719C44.6841 6.69323 44.5187 6.06923 44.1881 5.5999C43.8681 5.1199 43.3721 4.8799 42.7001 4.8799C42.0281 4.8799 41.5161 5.09856 41.1641 5.5359C40.8121 5.96256 40.6361 6.5759 40.6361 7.3759C40.6361 8.18656 40.7854 8.82123 41.0841 9.2799C41.3827 9.7279 41.8681 9.9519 42.5401 9.9519C43.2121 9.9519 43.7347 9.7439 44.1081 9.3279C44.4814 8.9119 44.6734 8.29323 44.6841 7.4719ZM52.1808 11.2959V0.175898L53.9888 -0.000102043V3.8879C54.2981 3.6959 54.6288 3.54656 54.9808 3.4399C55.3328 3.32256 55.6581 3.2639 55.9568 3.2639C57.0981 3.2639 57.9621 3.65856 58.5488 4.4479C59.1461 5.22656 59.4448 6.20256 59.4448 7.3759C59.4448 8.54923 59.1408 9.53057 58.5328 10.3199C57.9355 11.0986 57.0768 11.4879 55.9568 11.4879C55.6155 11.4879 55.2155 11.4132 54.7568 11.2639C54.3088 11.1146 53.9195 10.9066 53.5888 10.6399L53.1408 11.2959H52.1808ZM53.9888 9.3919C54.2235 9.56257 54.4795 9.70123 54.7568 9.8079C55.0341 9.9039 55.2955 9.9519 55.5408 9.9519C56.2981 9.9519 56.8261 9.68523 57.1248 9.1519C57.4341 8.6079 57.5888 8.02123 57.5888 7.3919C57.5888 6.6879 57.4448 6.0799 57.1568 5.5679C56.8795 5.0559 56.3408 4.7999 55.5408 4.7999C55.2955 4.7999 55.0341 4.85323 54.7568 4.9599C54.4795 5.06656 54.2235 5.20523 53.9888 5.3759V9.3919ZM62.5214 9.0239C62.5214 9.2799 62.6228 9.5199 62.8254 9.7439C63.0281 9.95723 63.3108 10.0639 63.6734 10.0639C64.0041 10.0639 64.3294 9.9839 64.6494 9.8239C64.9801 9.65323 65.2788 9.43457 65.5454 9.1679V7.7919H63.8174C63.3908 7.7919 63.0654 7.91456 62.8414 8.1599C62.6281 8.40523 62.5214 8.69323 62.5214 9.0239ZM61.3854 4.0319C61.6841 3.82923 62.1268 3.6639 62.7134 3.5359C63.3001 3.39723 63.7588 3.3279 64.0894 3.3279C65.0068 3.3279 65.7801 3.58923 66.4094 4.1119C67.0388 4.63456 67.3534 5.30123 67.3534 6.1119V11.2959H66.3774C66.3028 11.1892 66.2281 11.0772 66.1534 10.9599C66.0788 10.8319 66.0041 10.7146 65.9294 10.6079C65.6521 10.8426 65.3108 11.0506 64.9054 11.2319C64.5001 11.4026 64.1001 11.4879 63.7054 11.4879C62.7774 11.4879 62.0841 11.2586 61.6254 10.7999C61.1774 10.3412 60.9534 9.74923 60.9534 9.0239C60.9534 8.23457 61.2201 7.6319 61.7534 7.2159C62.2868 6.78923 62.9854 6.5759 63.8494 6.5759H65.5294C65.4974 6.11723 65.3801 5.73856 65.1774 5.4399C64.9748 5.13056 64.6228 4.9759 64.1214 4.9759C63.7161 4.9759 63.3108 5.02923 62.9054 5.1359C62.5108 5.24256 62.1694 5.36523 61.8814 5.5039C61.7961 5.25856 61.7108 5.01323 61.6254 4.7679C61.5401 4.52256 61.4601 4.27723 61.3854 4.0319ZM73.9409 5.4079C73.6103 5.2479 73.2796 5.1199 72.9489 5.0239C72.6289 4.91723 72.2716 4.8639 71.8769 4.8639C71.5463 4.8639 71.2849 4.93323 71.0929 5.0719C70.9009 5.1999 70.8049 5.38123 70.8049 5.6159C70.8049 5.79723 70.9169 5.96256 71.1409 6.1119C71.3756 6.25056 71.7063 6.3999 72.1329 6.5599C72.7729 6.7839 73.3703 7.1039 73.9249 7.5199C74.4796 7.92523 74.7569 8.45856 74.7569 9.1199C74.7569 9.86657 74.4849 10.4479 73.9409 10.8639C73.4076 11.2799 72.6183 11.4879 71.5729 11.4879C71.2423 11.4879 70.8103 11.4292 70.2769 11.3119C69.7436 11.1946 69.3009 11.0026 68.9489 10.7359L69.4929 9.4239C69.8449 9.59457 70.1969 9.7279 70.5489 9.8239C70.9009 9.90923 71.2369 9.9519 71.5569 9.9519C72.0049 9.9519 72.3463 9.8879 72.5809 9.7599C72.8263 9.62123 72.9489 9.43456 72.9489 9.1999C72.9489 8.9439 72.8209 8.7199 72.5649 8.5279C72.3196 8.32523 71.9623 8.14923 71.4929 7.9999C70.8849 7.79723 70.3036 7.51456 69.7489 7.1519C69.2049 6.77857 68.9329 6.27723 68.9329 5.6479C68.9329 4.92256 69.1996 4.35723 69.7329 3.9519C70.2663 3.5359 70.9916 3.3279 71.9089 3.3279C72.2396 3.3279 72.6609 3.39723 73.1729 3.5359C73.6849 3.6639 74.1223 3.85056 74.4849 4.0959L73.9409 5.4079ZM76.4933 11.2959V0.175898L78.3013 -0.000102043V6.5439L81.6933 3.3279L82.7173 4.5759C82.3546 4.91723 81.9813 5.25856 81.5973 5.5999C81.224 5.94123 80.8506 6.28256 80.4773 6.6239L83.4533 11.2959H81.3573L79.2133 7.7919C79.064 7.93056 78.9093 8.07456 78.7493 8.2239C78.5893 8.36257 78.44 8.50123 78.3013 8.6399V11.2959H76.4933ZM91.5753 7.9039H86.1993C86.274 8.5119 86.5033 9.0079 86.8873 9.3919C87.2713 9.7759 87.8153 9.9679 88.5193 9.9679C88.9246 9.9679 89.2766 9.9199 89.5753 9.8239C89.874 9.7279 90.194 9.5999 90.5353 9.4399C90.6313 9.65323 90.722 9.8719 90.8073 10.0959C90.9033 10.3199 90.994 10.5386 91.0793 10.7519C90.7273 11.0079 90.29 11.1946 89.7673 11.3119C89.2446 11.4292 88.818 11.4879 88.4873 11.4879C87.1646 11.4879 86.1353 11.1199 85.3993 10.3839C84.6633 9.63723 84.2953 8.65056 84.2953 7.4239C84.2953 6.19723 84.6366 5.21056 85.3193 4.4639C86.002 3.70656 86.93 3.3279 88.1033 3.3279C89.4366 3.3279 90.3486 3.7919 90.8393 4.7199C91.33 5.63723 91.5753 6.69856 91.5753 7.9039ZM89.8473 6.6879C89.7406 6.1119 89.538 5.66923 89.2393 5.3599C88.9513 5.0399 88.5566 4.8799 88.0553 4.8799C87.5433 4.8799 87.1273 5.0399 86.8073 5.3599C86.498 5.6799 86.306 6.12256 86.2313 6.6879H89.8473ZM97.6723 11.1839C97.5123 11.2906 97.2883 11.3812 97.0003 11.4559C96.723 11.5412 96.467 11.5839 96.2323 11.5839C95.3683 11.5839 94.6856 11.3599 94.1843 10.9119C93.683 10.4639 93.4323 9.81857 93.4323 8.9759V4.9759H92.3763V3.5839H93.4323V1.7119L95.2403 1.3439V3.5839H96.6483L97.2083 4.9759H95.2403V8.6719C95.2403 9.06657 95.331 9.39723 95.5123 9.6639C95.6936 9.9199 95.9763 10.0479 96.3603 10.0479C96.499 10.0479 96.6323 10.0319 96.7603 9.9999C96.899 9.95723 97.0323 9.90923 97.1603 9.8559L97.6723 11.1839Z" fill="#363534"/>
</svg>
